<svg width="54" height="35" viewBox="0 0 54 35" fill="none" xmlns="http://www.w3.org/2000/svg">
        <path d="M53.0795 33.1572C53.0757 34.1433 52.3186 34.9528 51.3569 35H2.30208C1.34034 34.9528 0.583272 34.1433 0.579468 33.1572V1.84283C0.583272 0.856739 1.34034 0.0471739 2.30208 0H51.3531C52.3148 0.0471739 53.0719 0.856739 53.0757 1.84283V33.1572H53.0795Z" fill="#fff"></path>
        <path d="M14.9782 31.7777V29.8649C15.0299 29.2524 14.5757 28.7137 13.9632 28.6619C13.9107 28.6581 13.8574 28.6581 13.8049 28.6619C13.3742 28.6315 12.9611 28.8377 12.7275 29.2006C12.5137 28.8522 12.1287 28.646 11.7201 28.6619C11.3572 28.6399 11.0087 28.8096 10.8025 29.1093V28.7358H10.174V31.7891H10.7919V30.0361C10.7492 29.6336 11.0399 29.2729 11.4416 29.2296H11.5641C12.0039 29.2296 12.252 29.5172 12.252 30.0323V31.7884H12.8698V30.0376C12.8287 29.6328 13.1239 29.2722 13.5287 29.2311H13.6451C14.0978 29.2311 14.3398 29.5187 14.3398 30.0338V31.7899L14.9782 31.7777ZM24.9113 28.7243H23.8012V27.7991H23.1796V28.7243H22.542V29.279H23.1796V30.7155C23.1796 31.4231 23.4276 31.8431 24.2121 31.8431C24.505 31.8431 24.7926 31.7617 25.0422 31.608L24.8497 31.0693C24.6724 31.1781 24.47 31.2405 24.2623 31.2489C23.9427 31.2489 23.7974 31.0442 23.7974 30.7391V29.2752H24.9075L24.9113 28.7243ZM30.5745 28.649C30.2389 28.6422 29.9239 28.8118 29.7444 29.0964V28.7266H29.1395V31.78H29.752V30.0574C29.752 29.5544 29.9947 29.2273 30.4276 29.2273C30.5699 29.225 30.7107 29.2509 30.8423 29.3041L31.047 28.7274C30.8955 28.6734 30.7358 28.6452 30.5745 28.6444V28.649ZM22.0147 28.9671C21.6396 28.7441 21.2082 28.633 20.7722 28.6475C19.9999 28.6475 19.5297 29.0066 19.5297 29.6047C19.5297 30.1023 19.8744 30.4021 20.5569 30.5025L20.8764 30.5474C21.2355 30.5976 21.4364 30.7269 21.4364 30.9065C21.4364 31.1416 21.1686 31.2961 20.7182 31.2961C20.3537 31.3083 19.9961 31.1956 19.7054 30.9765L19.3859 31.4543C19.7739 31.7206 20.2358 31.8584 20.706 31.8492C21.5863 31.8492 22.0748 31.4414 22.0748 30.8616C22.0748 30.2818 21.7012 30.0604 21.0423 29.9638L20.7227 29.9136C20.4351 29.8755 20.184 29.7858 20.184 29.594C20.184 29.4023 20.4267 29.2189 20.7889 29.2189C21.1252 29.2219 21.4547 29.3125 21.7461 29.4814L22.0147 28.9671ZM31.26 30.2415C31.2189 31.0777 31.8611 31.7899 32.6965 31.8363H32.8616C33.2596 31.8568 33.6507 31.729 33.9588 31.4772L33.6392 30.9993C33.4095 31.1736 33.1302 31.2702 32.8419 31.274C32.2704 31.2154 31.855 30.7049 31.9128 30.1335C31.963 29.6427 32.3511 29.2547 32.8419 29.2044C33.1302 29.2075 33.4102 29.3041 33.6392 29.4791L33.952 29.0142C33.6438 28.7609 33.2527 28.633 32.8548 28.6551C32.0186 28.614 31.3064 29.2562 31.26 30.0916V30.2423V30.2415ZM26.9679 28.649C26.1538 28.6277 25.4766 29.2706 25.4561 30.0848C25.453 30.138 25.453 30.1921 25.4561 30.2453C25.4051 31.0716 26.0321 31.7838 26.8584 31.8363H27.0075C27.4648 31.8538 27.9129 31.7016 28.2645 31.4087L27.9449 30.956C27.693 31.1576 27.3819 31.2694 27.0592 31.2755C26.5966 31.2915 26.1979 30.9529 26.1378 30.4941H28.4166V30.2392C28.5041 29.451 27.935 28.7411 27.1467 28.6536C27.0912 28.6467 27.0357 28.6437 26.9794 28.6444L26.9679 28.649ZM26.9679 29.2166C27.3971 29.2022 27.757 29.5392 27.7707 29.9684V29.9889H26.1348C26.1591 29.5453 26.5327 29.2022 26.9771 29.2166H26.9679ZM18.7064 30.2453V28.7243H18.0939V29.0941C17.8535 28.7981 17.4875 28.6323 17.1063 28.6467C16.2214 28.6467 15.5047 29.3642 15.5047 30.2484C15.5047 31.1333 16.2222 31.85 17.1063 31.85C17.4883 31.8667 17.855 31.7001 18.0939 31.4026V31.7724H18.7064V30.2453ZM16.2351 30.2453C16.1925 29.7196 16.5851 29.2585 17.1109 29.2166H17.1116H17.1908C17.7622 29.2752 18.1776 29.7858 18.1198 30.3572C18.0696 30.8479 17.6815 31.236 17.1908 31.2862C16.6627 31.2869 16.2336 30.8609 16.2321 30.3328V30.2537L16.2351 30.2453ZM39.7947 28.6559C39.4591 28.649 39.1441 28.8187 38.9646 29.1033V28.7297H38.3597V31.783H38.9684V30.0604C38.9684 29.5575 39.2111 29.2303 39.644 29.2303C39.7863 29.228 39.9271 29.2539 40.0587 29.3072L40.2634 28.7327C40.112 28.6787 39.9522 28.6505 39.7909 28.6498L39.7947 28.6559ZM44.716 31.3501C44.7571 31.3501 44.7982 31.3569 44.8362 31.3714C44.9092 31.4018 44.9686 31.4589 45.0013 31.5312C45.0333 31.6065 45.0333 31.6917 45.0013 31.7663C44.9853 31.8021 44.9625 31.834 44.9351 31.8614C44.9062 31.888 44.8727 31.9101 44.8362 31.9261C44.7982 31.9428 44.7571 31.9512 44.716 31.9512C44.5935 31.9504 44.4824 31.8812 44.4284 31.7716C44.3964 31.6963 44.3964 31.6111 44.4284 31.5365C44.4444 31.5008 44.4672 31.4688 44.4946 31.4414C44.5235 31.4148 44.557 31.3927 44.5935 31.3767C44.6323 31.3608 44.6741 31.3516 44.716 31.3501ZM44.716 31.8888C44.7479 31.8888 44.7791 31.8819 44.8073 31.869C44.8347 31.8568 44.8598 31.8393 44.8811 31.8188C44.964 31.7283 44.964 31.5898 44.8811 31.4992C44.8598 31.4779 44.8354 31.4604 44.8073 31.449C44.7502 31.4239 44.6848 31.4239 44.6277 31.449C44.5996 31.4612 44.5729 31.4779 44.5509 31.4992C44.4679 31.5898 44.4679 31.7283 44.5509 31.8188C44.5729 31.8409 44.5988 31.8576 44.6277 31.869C44.6574 31.8797 44.6886 31.8835 44.719 31.8819L44.716 31.8888ZM44.7358 31.5099C44.7654 31.5076 44.7951 31.5167 44.8187 31.535C44.8385 31.551 44.8491 31.5761 44.8476 31.6012C44.8491 31.6225 44.8415 31.6438 44.8263 31.659C44.808 31.6758 44.7845 31.6856 44.7601 31.6879L44.8514 31.7937H44.7776L44.6916 31.6879H44.6627V31.7937H44.6019V31.5137L44.7358 31.5099ZM44.6658 31.5639V31.6408H44.7358C44.7479 31.6446 44.7609 31.6446 44.7738 31.6408C44.7791 31.6316 44.7791 31.621 44.7738 31.6118C44.7791 31.6027 44.7791 31.5921 44.7738 31.5829C44.7616 31.5791 44.7487 31.5791 44.7358 31.5829L44.6658 31.5639ZM37.4489 30.2727V28.7456H36.8311V29.1154C36.5907 28.8194 36.2247 28.6536 35.8435 28.668C34.9586 28.668 34.2419 29.3855 34.2419 30.2697C34.2419 31.1546 34.9594 31.8713 35.8435 31.8713C36.2254 31.888 36.5922 31.7214 36.8311 31.4239V31.7937H37.4436L37.4489 30.2727ZM34.9799 30.2727C34.9373 29.7469 35.3299 29.2859 35.8557 29.244H35.9355C36.507 29.3026 36.9224 29.8131 36.8646 30.3846C36.8144 30.8753 36.4263 31.2634 35.9355 31.3136C35.4075 31.3143 34.9784 30.8883 34.9769 30.3602V30.2742H34.9799V30.2727ZM43.6005 30.2727V27.5031H42.9919V29.0979C42.7514 28.8019 42.3854 28.6361 42.0042 28.6505C41.1194 28.6505 40.4026 29.368 40.4026 30.2522C40.4026 31.1371 41.1201 31.8538 42.0042 31.8538C42.3862 31.8705 42.7529 31.7039 42.9919 31.4064V31.7762H43.6044L43.6005 30.2727ZM41.1292 30.2727C41.0866 29.7469 41.4792 29.2859 42.005 29.244H42.0849C42.6525 29.333 43.0398 29.8656 42.9508 30.4325C42.88 30.8829 42.5239 31.2344 42.0727 31.2999C41.5447 31.3006 41.1155 30.8746 41.114 30.3465C41.1125 30.3214 41.1125 30.2963 41.114 30.2712L41.1292 30.2727Z" fill="#010101"></path>
        <path d="M31.8482 5.50415H21.8047V23.552H31.8482V5.50415Z" fill="#F26122"></path>
        <path d="M22.4453 14.5288C22.4423 11.0075 24.0591 7.68023 26.8295 5.50567C21.8458 1.58947 14.6312 2.45534 10.715 7.43904C6.79881 12.4227 7.66468 19.6373 12.6484 23.5535C16.8096 26.8237 22.6675 26.8237 26.8295 23.5535C24.0584 21.3789 22.4423 18.0509 22.4453 14.5288Z" fill="#EA1D25"></path>
        <path d="M44.3082 21.6407V21.2709H44.4573V21.194H44.0784V21.2709H44.2275V21.6407H44.3082ZM45.0447 21.6407V21.1933H44.9298L44.7951 21.5128L44.6605 21.1933H44.5456V21.6407H44.6247V21.3028L44.7487 21.5935H44.8347L44.9587 21.3028V21.6407H45.0447Z" fill="#F69E1E"></path>
        <path d="M45.3962 14.5288C45.3947 20.8676 40.255 26.0058 33.9162 26.005C31.3437 26.0042 28.8465 25.1399 26.8241 23.5504C31.8078 19.6342 32.6737 12.4197 28.7575 7.43598C28.1922 6.71696 27.5432 6.06794 26.8241 5.50261C31.8086 1.58565 39.0239 2.45076 42.9409 7.43522C44.5296 9.45685 45.3939 11.954 45.3939 14.5258L45.3962 14.5288Z" fill="#F69E1E"></path>
    </svg>